ffmpeg started on 2025-06-06 at 18:19:54
Report written to "D:\Convert\FFMetrics\reports\psnr_report-6.txt"
Log level: 32
Command line:
ffmpeg -hide_banner -nostdin -i "G:\\\xc0\xed\xe8\xec\xe5\\\xce\xed\xe3\xee\xe8\xed\xe3\xe8\\!_36_\xce\xf1\xe5\xed\xfc_2024\\DreamCast\\\xcf\xf0\xee\xf9\xe0\xe9, \xe6\xe8\xe7\xed\xfc \xe4\xf0\xe0\xea\xee\xed\xe0. \xc7\xe4\xf0\xe0\xe2\xf1\xf2\xe2\xf3\xe9, \xe6\xe8\xe7\xed\xfc \xf7\xe5\xeb\xee\xe2\xe5\xea\xe0\\[DC] Sayonara Ryuusei Konnichiwa Jinsei - 06_Telegram_HEVC.mkv" -i "G:\\\xc0\xed\xe8\xec\xe5\\\xce\xed\xe3\xee\xe8\xed\xe3\xe8\\!_36_\xce\xf1\xe5\xed\xfc_2024\\DreamCast\\\xcf\xf0\xee\xf9\xe0\xe9, \xe6\xe8\xe7\xed\xfc \xe4\xf0\xe0\xea\xee\xed\xe0. \xc7\xe4\xf0\xe0\xe2\xf1\xf2\xe2\xf3\xe9, \xe6\xe8\xe7\xed\xfc \xf7\xe5\xeb\xee\xe2\xe5\xea\xe0\\[DC] Sayonara Ryuusei Konnichiwa Jinsei - 06_Telegram.mp4" -lavfi "[0:v]settb=AVTB,setpts=PTS-STARTPTS,format=pix_fmts=yuv420p10,fps=24000/1001,scale=1920:1080:flags=bicubic[main];[1:v]settb=AVTB,setpts=PTS-STARTPTS,format=pix_fmts=yuv420p,fps=24000/1001,scale=1920:1080:flags=bicubic[ref];[main][ref]psnr=eof_action=endall:stats_file='D\\:/Convert/FFMetrics/logs/psnr_logfile-6.txt'" -f null -
Input #0, matroska,webm, from 'G:\Аниме\Онгоинги\!_36_Осень_2024\DreamCast\Прощай, жизнь дракона. Здравствуй, жизнь человека\[DC] Sayonara Ryuusei Konnichiwa Jinsei - 06_Telegram_HEVC.mkv':
  Metadata:
    COMPATIBLE_BRANDS: isomiso2avc1mp41
    MAJOR_BRAND     : isom
    MINOR_VERSION   : 512
    ENCODER         : Lavf61.7.100
  Duration: 00:24:16.68, start: -0.021000, bitrate: 1321 kb/s
  Stream #0:0: Video: hevc (Main 10), yuv420p10le(tv, bt709, progressive), 1920x1080 [SAR 1:1 DAR 16:9], 23.98 fps, 23.98 tbr, 1k tbn (default)
      Metadata:
        HANDLER_NAME    : VideoHandler
        VENDOR_ID       : [0][0][0][0]
        ENCODER         : Lavc61.19.100 libx265
        BPS             : 1124460
        DURATION        : 00:24:16.579708333
        NUMBER_OF_FRAMES: 34923
        NUMBER_OF_BYTES : 204733212
        _STATISTICS_WRITING_APP: mkvpropedit v66.0.0 ('Josie') 64-bit
        _STATISTICS_WRITING_DATE_UTC: 2025-06-03 10:03:53
        _STATISTICS_TAGS: BPS DURATION NUMBER_OF_FRAMES NUMBER_OF_BYTES
  Stream #0:1: Audio: aac (LC), 48000 Hz, stereo, fltp (default)
      Metadata:
        HANDLER_NAME    : SoundHandler
        VENDOR_ID       : [0][0][0][0]
        ENCODER         : Lavc61.19.100 aac
        BPS             : 193464
        DURATION        : 00:24:16.682000000
        NUMBER_OF_FRAMES: 68283
        NUMBER_OF_BYTES : 35227066
        _STATISTICS_WRITING_APP: mkvpropedit v66.0.0 ('Josie') 64-bit
        _STATISTICS_WRITING_DATE_UTC: 2025-06-03 10:03:53
        _STATISTICS_TAGS: BPS DURATION NUMBER_OF_FRAMES NUMBER_OF_BYTES
Input #1, mov,mp4,m4a,3gp,3g2,mj2, from 'G:\Аниме\Онгоинги\!_36_Осень_2024\DreamCast\Прощай, жизнь дракона. Здравствуй, жизнь человека\[DC] Sayonara Ryuusei Konnichiwa Jinsei - 06_Telegram.mp4':
  Metadata:
    major_brand     : isom
    minor_version   : 512
    compatible_brands: isomiso2avc1mp41
    encoder         : Lavf61.1.100
  Duration: 00:24:16.65, start: 0.000000, bitrate: 3767 kb/s
  Stream #1:0[0x1](und): Video: h264 (High) (avc1 / 0x31637661), yuv420p(tv, bt709, progressive), 1920x1080 [SAR 1:1 DAR 16:9], 3619 kb/s, 23.98 fps, 23.98 tbr, 24k tbn (default)
      Metadata:
        handler_name    : VideoHandler
        vendor_id       : [0][0][0][0]
        encoder         : Lavc61.3.100 h264_qsv
  Stream #1:1[0x2](und): Audio: aac (HE-AACv2) (mp4a / 0x6134706D), 48000 Hz, stereo, fltp, 144 kb/s (default)
      Metadata:
        handler_name    : SoundHandler
        vendor_id       : [0][0][0][0]
Stream mapping:
  Stream #0:0 (hevc) -> settb:default
  Stream #1:0 (h264) -> settb:default
  psnr:default -> Stream #0:0 (wrapped_avframe)
  Stream #0:1 -> #0:1 (aac (native) -> pcm_s16le (native))
Output #0, null, to 'pipe:':
  Metadata:
    COMPATIBLE_BRANDS: isomiso2avc1mp41
    MAJOR_BRAND     : isom
    MINOR_VERSION   : 512
    encoder         : Lavf61.7.100
  Stream #0:0: Video: wrapped_avframe, yuv420p10le(tv, bt709, progressive), 1920x1080 [SAR 1:1 DAR 16:9], q=2-31, 200 kb/s, 23.98 fps, 23.98 tbn
      Metadata:
        encoder         : Lavc61.19.100 wrapped_avframe
  Stream #0:1: Audio: pcm_s16le, 48000 Hz, stereo, s16, 1536 kb/s (default)
      Metadata:
        HANDLER_NAME    : SoundHandler
        VENDOR_ID       : [0][0][0][0]
        _STATISTICS_TAGS: BPS DURATION NUMBER_OF_FRAMES NUMBER_OF_BYTES
        BPS             : 193464
        DURATION        : 00:24:16.682000000
        NUMBER_OF_FRAMES: 68283
        NUMBER_OF_BYTES : 35227066
        _STATISTICS_WRITING_APP: mkvpropedit v66.0.0 ('Josie') 64-bit
        _STATISTICS_WRITING_DATE_UTC: 2025-06-03 10:03:53
        encoder         : Lavc61.19.100 pcm_s16le
frame=  178 fps=0.0 q=-0.0 size=N/A time=00:00:07.42 bitrate=N/A speed=14.1x    frame=  396 fps=381 q=-0.0 size=N/A time=00:00:16.51 bitrate=N/A speed=15.9x    frame=  678 fps=435 q=-0.0 size=N/A time=00:00:28.27 bitrate=N/A speed=18.1x    frame=  946 fps=457 q=-0.0 size=N/A time=00:00:39.45 bitrate=N/A speed=  19x    frame= 1217 fps=470 q=-0.0 size=N/A time=00:00:50.75 bitrate=N/A speed=19.6x    frame= 1488 fps=477 q=-0.0 size=N/A time=00:01:02.06 bitrate=N/A speed=19.9x    frame= 1750 fps=481 q=-0.0 size=N/A time=00:01:12.98 bitrate=N/A speed=20.1x    frame= 1994 fps=481 q=-0.0 size=N/A time=00:01:23.16 bitrate=N/A speed=20.1x    frame= 2192 fps=471 q=-0.0 size=N/A time=00:01:31.42 bitrate=N/A speed=19.6x    frame= 2388 fps=461 q=-0.0 size=N/A time=00:01:39.59 bitrate=N/A speed=19.2x    frame= 2567 fps=451 q=-0.0 size=N/A time=00:01:47.06 bitrate=N/A speed=18.8x    frame= 2774 fps=446 q=-0.0 size=N/A time=00:01:55.69 bitrate=N/A speed=18.6x    frame= 2960 fps=439 q=-0.0 size=N/A time=00:02:03.45 bitrate=N/A speed=18.3x    frame= 3150 fps=434 q=-0.0 size=N/A time=00:02:11.38 bitrate=N/A speed=18.1x    frame= 3371 fps=434 q=-0.0 size=N/A time=00:02:20.59 bitrate=N/A speed=18.1x    frame= 3581 fps=432 q=-0.0 size=N/A time=00:02:29.35 bitrate=N/A speed=  18x    frame= 3819 fps=434 q=-0.0 size=N/A time=00:02:39.28 bitrate=N/A speed=18.1x    frame= 4053 fps=435 q=-0.0 size=N/A time=00:02:49.04 bitrate=N/A speed=18.1x    frame= 4313 fps=439 q=-0.0 size=N/A time=00:02:59.88 bitrate=N/A speed=18.3x    frame= 4565 fps=441 q=-0.0 size=N/A time=00:03:10.39 bitrate=N/A speed=18.4x    frame= 4848 fps=446 q=-0.0 size=N/A time=00:03:22.20 bitrate=N/A speed=18.6x    frame= 5124 fps=450 q=-0.0 size=N/A time=00:03:33.71 bitrate=N/A speed=18.8x    frame= 5315 fps=447 q=-0.0 size=N/A time=00:03:41.67 bitrate=N/A speed=18.6x    frame= 5563 fps=448 q=-0.0 size=N/A time=00:03:52.02 bitrate=N/A speed=18.7x    frame= 5802 fps=449 q=-0.0 size=N/A time=00:04:01.99 bitrate=N/A speed=18.7x    frame= 6040 fps=449 q=-0.0 size=N/A time=00:04:11.91 bitrate=N/A speed=18.7x    frame= 6320 fps=453 q=-0.0 size=N/A time=00:04:23.59 bitrate=N/A speed=18.9x    frame= 6604 fps=456 q=-0.0 size=N/A time=00:04:35.44 bitrate=N/A speed=  19x    frame= 6868 fps=458 q=-0.0 size=N/A time=00:04:46.45 bitrate=N/A speed=19.1x    frame= 7084 fps=457 q=-0.0 size=N/A time=00:04:55.46 bitrate=N/A speed=  19x    frame= 7267 fps=454 q=-0.0 size=N/A time=00:05:03.09 bitrate=N/A speed=18.9x    frame= 7533 fps=455 q=-0.0 size=N/A time=00:05:14.18 bitrate=N/A speed=  19x    frame= 7815 fps=458 q=-0.0 size=N/A time=00:05:25.95 bitrate=N/A speed=19.1x    frame= 8073 fps=459 q=-0.0 size=N/A time=00:05:36.71 bitrate=N/A speed=19.1x    frame= 8300 fps=459 q=-0.0 size=N/A time=00:05:46.17 bitrate=N/A speed=19.1x    frame= 8542 fps=459 q=-0.0 size=N/A time=00:05:56.27 bitrate=N/A speed=19.1x    frame= 8793 fps=459 q=-0.0 size=N/A time=00:06:06.74 bitrate=N/A speed=19.2x    frame= 9055 fps=461 q=-0.0 size=N/A time=00:06:17.66 bitrate=N/A speed=19.2x    frame= 9316 fps=462 q=-0.0 size=N/A time=00:06:28.55 bitrate=N/A speed=19.3x    frame= 9580 fps=463 q=-0.0 size=N/A time=00:06:39.56 bitrate=N/A speed=19.3x    frame= 9791 fps=462 q=-0.0 size=N/A time=00:06:48.36 bitrate=N/A speed=19.3x    frame=10024 fps=462 q=-0.0 size=N/A time=00:06:58.08 bitrate=N/A speed=19.3x    frame=10248 fps=461 q=-0.0 size=N/A time=00:07:07.42 bitrate=N/A speed=19.2x    frame=10460 fps=460 q=-0.0 size=N/A time=00:07:16.26 bitrate=N/A speed=19.2x    frame=10679 fps=459 q=-0.0 size=N/A time=00:07:25.40 bitrate=N/A speed=19.2x    frame=10905 fps=459 q=-0.0 size=N/A time=00:07:34.82 bitrate=N/A speed=19.1x    frame=11148 fps=459 q=-0.0 size=N/A time=00:07:44.96 bitrate=N/A speed=19.1x    frame=11351 fps=458 q=-0.0 size=N/A time=00:07:53.43 bitrate=N/A speed=19.1x    frame=11550 fps=456 q=-0.0 size=N/A time=00:08:01.73 bitrate=N/A speed=  19x    frame=11772 fps=456 q=-0.0 size=N/A time=00:08:10.99 bitrate=N/A speed=  19x    frame=12023 fps=456 q=-0.0 size=N/A time=00:08:21.45 bitrate=N/A speed=  19x    frame=12303 fps=458 q=-0.0 size=N/A time=00:08:33.13 bitrate=N/A speed=19.1x    frame=12581 fps=459 q=-0.0 size=N/A time=00:08:44.73 bitrate=N/A speed=19.2x    frame=12849 fps=461 q=-0.0 size=N/A time=00:08:55.91 bitrate=N/A speed=19.2x    frame=13132 fps=462 q=-0.0 size=N/A time=00:09:07.71 bitrate=N/A speed=19.3x    frame=13387 fps=463 q=-0.0 size=N/A time=00:09:18.34 bitrate=N/A speed=19.3x    frame=13618 fps=462 q=-0.0 size=N/A time=00:09:27.98 bitrate=N/A speed=19.3x    frame=13834 fps=462 q=-0.0 size=N/A time=00:09:36.99 bitrate=N/A speed=19.3x    frame=14079 fps=462 q=-0.0 size=N/A time=00:09:47.21 bitrate=N/A speed=19.3x    frame=14355 fps=463 q=-0.0 size=N/A time=00:09:58.72 bitrate=N/A speed=19.3x    frame=14590 fps=463 q=-0.0 size=N/A time=00:10:08.52 bitrate=N/A speed=19.3x    frame=14804 fps=462 q=-0.0 size=N/A time=00:10:17.45 bitrate=N/A speed=19.3x    frame=14968 fps=460 q=-0.0 size=N/A time=00:10:24.29 bitrate=N/A speed=19.2x    frame=15133 fps=458 q=-0.0 size=N/A time=00:10:31.17 bitrate=N/A speed=19.1x    frame=15307 fps=456 q=-0.0 size=N/A time=00:10:38.42 bitrate=N/A speed=  19x    frame=15471 fps=454 q=-0.0 size=N/A time=00:10:45.26 bitrate=N/A speed=18.9x    frame=15653 fps=452 q=-0.0 size=N/A time=00:10:52.86 bitrate=N/A speed=18.9x    frame=15904 fps=453 q=-0.0 size=N/A time=00:11:03.32 bitrate=N/A speed=18.9x    frame=16162 fps=454 q=-0.0 size=N/A time=00:11:14.09 bitrate=N/A speed=18.9x    frame=16416 fps=454 q=-0.0 size=N/A time=00:11:24.68 bitrate=N/A speed=18.9x    frame=16664 fps=455 q=-0.0 size=N/A time=00:11:35.02 bitrate=N/A speed=  19x    frame=16936 fps=456 q=-0.0 size=N/A time=00:11:46.37 bitrate=N/A speed=  19x    frame=17203 fps=456 q=-0.0 size=N/A time=00:11:57.50 bitrate=N/A speed=  19x    frame=17481 fps=458 q=-0.0 size=N/A time=00:12:09.10 bitrate=N/A speed=19.1x    frame=17718 fps=457 q=-0.0 size=N/A time=00:12:18.98 bitrate=N/A speed=19.1x    frame=17993 fps=459 q=-0.0 size=N/A time=00:12:30.45 bitrate=N/A speed=19.1x    frame=18194 fps=458 q=-0.0 size=N/A time=00:12:38.84 bitrate=N/A speed=19.1x    frame=18398 fps=457 q=-0.0 size=N/A time=00:12:47.34 bitrate=N/A speed=19.1x    frame=18651 fps=457 q=-0.0 size=N/A time=00:12:57.90 bitrate=N/A speed=19.1x    frame=18883 fps=457 q=-0.0 size=N/A time=00:13:07.57 bitrate=N/A speed=19.1x    frame=19155 fps=458 q=-0.0 size=N/A time=00:13:18.92 bitrate=N/A speed=19.1x    frame=19385 fps=458 q=-0.0 size=N/A time=00:13:28.51 bitrate=N/A speed=19.1x    frame=19585 fps=457 q=-0.0 size=N/A time=00:13:36.85 bitrate=N/A speed=19.1x    frame=19771 fps=456 q=-0.0 size=N/A time=00:13:44.61 bitrate=N/A speed=  19x    frame=19971 fps=455 q=-0.0 size=N/A time=00:13:52.95 bitrate=N/A speed=  19x    frame=20238 fps=456 q=-0.0 size=N/A time=00:14:04.09 bitrate=N/A speed=  19x    frame=20445 fps=455 q=-0.0 size=N/A time=00:14:12.72 bitrate=N/A speed=  19x    frame=20675 fps=455 q=-0.0 size=N/A time=00:14:22.31 bitrate=N/A speed=  19x    frame=20924 fps=455 q=-0.0 size=N/A time=00:14:32.70 bitrate=N/A speed=  19x    frame=21167 fps=456 q=-0.0 size=N/A time=00:14:42.84 bitrate=N/A speed=  19x    frame=21426 fps=456 q=-0.0 size=N/A time=00:14:53.64 bitrate=N/A speed=  19x    frame=21680 fps=456 q=-0.0 size=N/A time=00:15:04.23 bitrate=N/A speed=  19x    frame=21956 fps=457 q=-0.0 size=N/A time=00:15:15.74 bitrate=N/A speed=19.1x    frame=22226 fps=458 q=-0.0 size=N/A time=00:15:27.00 bitrate=N/A speed=19.1x    frame=22484 fps=458 q=-0.0 size=N/A time=00:15:37.77 bitrate=N/A speed=19.1x    frame=22733 fps=459 q=-0.0 size=N/A time=00:15:48.15 bitrate=N/A speed=19.1x    frame=22997 fps=459 q=-0.0 size=N/A time=00:15:59.16 bitrate=N/A speed=19.2x    frame=23255 fps=460 q=-0.0 size=N/A time=00:16:09.92 bitrate=N/A speed=19.2x    frame=23516 fps=460 q=-0.0 size=N/A time=00:16:20.81 bitrate=N/A speed=19.2x    frame=23780 fps=461 q=-0.0 size=N/A time=00:16:31.82 bitrate=N/A speed=19.2x    frame=24070 fps=462 q=-0.0 size=N/A time=00:16:43.91 bitrate=N/A speed=19.3x    frame=24344 fps=462 q=-0.0 size=N/A time=00:16:55.34 bitrate=N/A speed=19.3x    frame=24617 fps=463 q=-0.0 size=N/A time=00:17:06.73 bitrate=N/A speed=19.3x    frame=24902 fps=464 q=-0.0 size=N/A time=00:17:18.62 bitrate=N/A speed=19.3x    frame=25167 fps=464 q=-0.0 size=N/A time=00:17:29.67 bitrate=N/A speed=19.4x    frame=25435 fps=465 q=-0.0 size=N/A time=00:17:40.85 bitrate=N/A speed=19.4x    frame=25699 fps=465 q=-0.0 size=N/A time=00:17:51.86 bitrate=N/A speed=19.4x    frame=25966 fps=466 q=-0.0 size=N/A time=00:18:02.99 bitrate=N/A speed=19.4x    frame=26234 fps=466 q=-0.0 size=N/A time=00:18:14.17 bitrate=N/A speed=19.5x    frame=26433 fps=466 q=-0.0 size=N/A time=00:18:22.47 bitrate=N/A speed=19.4x    frame=26663 fps=465 q=-0.0 size=N/A time=00:18:32.06 bitrate=N/A speed=19.4x    frame=26928 fps=466 q=-0.0 size=N/A time=00:18:43.12 bitrate=N/A speed=19.4x    frame=27145 fps=465 q=-0.0 size=N/A time=00:18:52.17 bitrate=N/A speed=19.4x    frame=27360 fps=465 q=-0.0 size=N/A time=00:19:01.14 bitrate=N/A speed=19.4x    frame=27595 fps=465 q=-0.0 size=N/A time=00:19:10.94 bitrate=N/A speed=19.4x    frame=27812 fps=465 q=-0.0 size=N/A time=00:19:19.99 bitrate=N/A speed=19.4x    frame=28056 fps=465 q=-0.0 size=N/A time=00:19:30.16 bitrate=N/A speed=19.4x    frame=28302 fps=465 q=-0.0 size=N/A time=00:19:40.42 bitrate=N/A speed=19.4x    frame=28546 fps=465 q=-0.0 size=N/A time=00:19:50.60 bitrate=N/A speed=19.4x    frame=28765 fps=464 q=-0.0 size=N/A time=00:19:59.74 bitrate=N/A speed=19.4x    frame=28987 fps=464 q=-0.0 size=N/A time=00:20:08.99 bitrate=N/A speed=19.4x    frame=29270 fps=465 q=-0.0 size=N/A time=00:20:20.80 bitrate=N/A speed=19.4x    frame=29545 fps=465 q=-0.0 size=N/A time=00:20:32.27 bitrate=N/A speed=19.4x    frame=29805 fps=466 q=-0.0 size=N/A time=00:20:43.11 bitrate=N/A speed=19.4x    frame=30087 fps=466 q=-0.0 size=N/A time=00:20:54.87 bitrate=N/A speed=19.4x    frame=30317 fps=466 q=-0.0 size=N/A time=00:21:04.47 bitrate=N/A speed=19.4x    frame=30553 fps=466 q=-0.0 size=N/A time=00:21:14.31 bitrate=N/A speed=19.4x    frame=30794 fps=466 q=-0.0 size=N/A time=00:21:24.36 bitrate=N/A speed=19.4x    frame=31003 fps=466 q=-0.0 size=N/A time=00:21:33.08 bitrate=N/A speed=19.4x    frame=31266 fps=466 q=-0.0 size=N/A time=00:21:44.05 bitrate=N/A speed=19.4x    frame=31500 fps=466 q=-0.0 size=N/A time=00:21:53.81 bitrate=N/A speed=19.4x    frame=31736 fps=466 q=-0.0 size=N/A time=00:22:03.65 bitrate=N/A speed=19.4x    frame=31967 fps=466 q=-0.0 size=N/A time=00:22:13.29 bitrate=N/A speed=19.4x    frame=32227 fps=466 q=-0.0 size=N/A time=00:22:24.13 bitrate=N/A speed=19.4x    frame=32482 fps=466 q=-0.0 size=N/A time=00:22:34.77 bitrate=N/A speed=19.4x    frame=32687 fps=466 q=-0.0 size=N/A time=00:22:43.32 bitrate=N/A speed=19.4x    frame=32918 fps=466 q=-0.0 size=N/A time=00:22:52.95 bitrate=N/A speed=19.4x    frame=33148 fps=465 q=-0.0 size=N/A time=00:23:02.54 bitrate=N/A speed=19.4x    frame=33377 fps=465 q=-0.0 size=N/A time=00:23:12.09 bitrate=N/A speed=19.4x    frame=33603 fps=465 q=-0.0 size=N/A time=00:23:21.52 bitrate=N/A speed=19.4x    frame=33803 fps=464 q=-0.0 size=N/A time=00:23:29.86 bitrate=N/A speed=19.4x    frame=34018 fps=464 q=-0.0 size=N/A time=00:23:38.83 bitrate=N/A speed=19.4x    frame=34158 fps=463 q=-0.0 size=N/A time=00:23:44.67 bitrate=N/A speed=19.3x    frame=34321 fps=462 q=-0.0 size=N/A time=00:23:51.47 bitrate=N/A speed=19.3x    frame=34548 fps=462 q=-0.0 size=N/A time=00:24:00.93 bitrate=N/A speed=19.3x    frame=34769 fps=461 q=-0.0 size=N/A time=00:24:10.15 bitrate=N/A speed=19.2x    [Parsed_psnr_10 @ 00000262a3e1c980] PSNR y:48.817961 u:49.581486 v:50.086261 average:49.128838 min:41.061073 max:inf
[out#0/null @ 00000262a3555b80] video:15006KiB audio:273132KiB subtitle:0KiB other streams:0KiB global headers:0KiB muxing overhead: unknown
frame=34923 fps=462 q=-0.0 Lsize=N/A time=00:24:16.58 bitrate=N/A speed=19.3x    
